<?xml version="1.0" encoding="utf-8"?><svg viewBox="0 0 32 32" xmlns="http://www.w3.org/2000/svg" xmlns:xlink="http://www.w3.org/1999/xlink"><style>:root>svg{display:none}:root>svg:target{display:block}</style><svg fill="none" viewBox="0 0 32 32" id="bg-icon" xmlns="http://www.w3.org/2000/svg"><path fill-rule="evenodd" clip-rule="evenodd" d="M0 16c0 8.82 7.176 16 16 16 8.82 0 16-7.18 16-16S24.82 0 16 0 0 7.18 0 16ZM5.942 4.97A14.877 14.877 0 0 1 16 1.065c3.87 0 7.4 1.479 10.056 3.901l-1.188 1.188A13.201 13.201 0 0 0 16 2.75c-3.412 0-6.522 1.29-8.87 3.407L5.941 4.969Zm-.974.974A14.877 14.877 0 0 0 1.066 16c0 3.87 1.479 7.4 3.9 10.055l1.188-1.187A13.201 13.201 0 0 1 2.75 16c0-3.41 1.288-6.52 3.405-8.869L4.968 5.944ZM5.94 27.03A14.877 14.877 0 0 0 16 30.934c3.87 0 7.4-1.478 10.055-3.9l-1.188-1.188A13.201 13.201 0 0 1 16 29.25c-3.412 0-6.523-1.29-8.871-3.407L5.94 27.03ZM30.934 16c0 3.871-1.48 7.403-3.905 10.06l-1.187-1.188A13.201 13.201 0 0 0 29.25 16c0-3.412-1.29-6.522-3.407-8.87l1.187-1.188A14.877 14.877 0 0 1 30.934 16Z" fill="#F97247"/></svg><svg fill="none" viewBox="0 0 32 32" id="bg-icon-light" xmlns="http://www.w3.org/2000/svg"><path fill-rule="evenodd" clip-rule="evenodd" d="M0 16c0 8.82 7.176 16 16 16 8.82 0 16-7.18 16-16S24.82 0 16 0 0 7.18 0 16ZM5.942 4.97A14.877 14.877 0 0 1 16 1.065c3.87 0 7.4 1.479 10.056 3.901l-1.188 1.188A13.201 13.201 0 0 0 16 2.75c-3.412 0-6.522 1.29-8.87 3.407L5.941 4.969Zm-.974.974A14.877 14.877 0 0 0 1.066 16c0 3.87 1.479 7.4 3.9 10.055l1.188-1.187A13.201 13.201 0 0 1 2.75 16c0-3.41 1.288-6.52 3.405-8.869L4.968 5.944ZM5.94 27.03A14.877 14.877 0 0 0 16 30.934c3.87 0 7.4-1.478 10.055-3.9l-1.188-1.188A13.201 13.201 0 0 1 16 29.25c-3.412 0-6.523-1.29-8.871-3.407L5.94 27.03ZM30.934 16c0 3.871-1.48 7.403-3.905 10.06l-1.187-1.188A13.201 13.201 0 0 0 29.25 16c0-3.412-1.29-6.522-3.407-8.87l1.187-1.188A14.877 14.877 0 0 1 30.934 16Z" fill="url(#aa)"/><defs><linearGradient id="aa" x1="32" y1="0" x2="-5.647" y2="9.412" gradientUnits="userSpaceOnUse"><stop stop-color="#F99247"/><stop offset="1" stop-color="#F29DA2"/></linearGradient></defs></svg><svg fill="none" viewBox="0 0 28 28" id="btn-menu" xmlns="http://www.w3.org/2000/svg"><path d="M4.667 21h18.666a1.17 1.17 0 0 0 1.167-1.167 1.17 1.17 0 0 0-1.167-1.166H4.667A1.17 1.17 0 0 0 3.5 19.833 1.17 1.17 0 0 0 4.667 21Zm0-5.833h18.666A1.17 1.17 0 0 0 24.5 14a1.17 1.17 0 0 0-1.167-1.167H4.667A1.17 1.17 0 0 0 3.5 14a1.17 1.17 0 0 0 1.167 1.167Zm-1.167-7a1.17 1.17 0 0 0 1.167 1.166h18.666A1.17 1.17 0 0 0 24.5 8.167 1.17 1.17 0 0 0 23.333 7H4.667A1.17 1.17 0 0 0 3.5 8.167Z" fill="#fff"/></svg><svg fill="none" viewBox="0 0 28 28" id="btn-menu--close" xmlns="http://www.w3.org/2000/svg"><g clip-path="url(#ca)"><path d="m22.167 7.478-1.645-1.645L14 12.355 7.478 5.833 5.833 7.478 12.355 14l-6.522 6.522 1.645 1.645L14 15.645l6.522 6.522 1.645-1.645L15.645 14l6.522-6.522Z" fill="#fff"/></g><defs><clipPath id="ca"><path fill="#fff" d="M0 0h28v28H0z"/></clipPath></defs></svg></svg>